<?xml version="1.0" ?><svg viewBox="0 0 512 512" xmlns="http://www.w3.org/2000/svg"><g id="Renewable_energy_solar"><path d="M385.33,251.05c0-16.2-26-27.11-31.82-41.2-6.05-14.6,4.37-40.63-6.63-51.64s-37-.57-51.64-6.63c-14.08-5.84-25-31.82-41.19-31.82s-27.11,26-41.2,31.82c-14.6,6.06-40.63-4.37-51.64,6.63s-.58,37-6.63,51.64c-5.84,14.09-31.82,25-31.82,41.2s26,27.11,31.82,41.19c6,14.6-4.37,40.64,6.63,51.64s37,.58,51.64,6.64c14.09,5.84,25,31.81,41.2,31.81s27.11-26,41.19-31.81c14.6-6.06,40.64,4.37,51.64-6.64s.58-37,6.63-51.64C359.35,278.16,385.33,267.25,385.33,251.05Zm-131.28,73.1a73.11,73.11,0,1,1,73.1-73.1A73.1,73.1,0,0,1,254.05,324.15Z"/><path d="M280.81,243.67H267.09a4.59,4.59,0,0,1-4.29-6.23l11.54-30.38a4.6,4.6,0,0,0-4.3-6.23H240.2a4.59,4.59,0,0,0-4.5,3.64l-12.92,60.74a4.59,4.59,0,0,0,4.5,5.55h19.48a4.6,4.6,0,0,1,4.52,5.47l-3.84,20a5,5,0,0,0,9.22,3.42l28.14-49.05A4.6,4.6,0,0,0,280.81,243.67Z"/><path d="M404.15,404.18A210.8,210.8,0,0,0,450,180.41C407.9,72.21,285.61,18.43,177.4,60.54l6.53,16.78c99-38.51,210.79,10.66,249.3,109.62a192.77,192.77,0,0,1-42,204.68l-12.8-12.47a9.51,9.51,0,0,0-16.15,6.94l.48,33.89a9.51,9.51,0,0,0,9.62,9.37l33.89-.4a9.51,9.51,0,0,0,6.52-16.32Z"/><path d="M181.85,431a192.44,192.44,0,0,1-60-311l11.34,11a9.51,9.51,0,0,0,16.15-6.94l-.48-33.89a9.49,9.49,0,0,0-9.62-9.37l-33.89.4A9.51,9.51,0,0,0,98.8,97.58l10.13,9.87A210.53,210.53,0,0,0,335.69,451.07l-6.52-16.77A191.29,191.29,0,0,1,181.85,431Z"/></g></svg>