<?xml version="1.0" encoding="UTF-8" standalone="no"?>
<!-- Created with Inkscape (http://www.inkscape.org/) -->

<svg
   width="143"
   height="32"
   viewBox="0 0 37.835416 8.4666669"
   version="1.1"
   id="svg5"
   inkscape:version="1.1.2 (b8e25be8, 2022-02-05)"
   sodipodi:docname="tooling-manager.svg"
   xmlns:inkscape="http://www.inkscape.org/namespaces/inkscape"
   xmlns:sodipodi="http://sodipodi.sourceforge.net/DTD/sodipodi-0.dtd"
   xmlns="http://www.w3.org/2000/svg"
   xmlns:svg="http://www.w3.org/2000/svg">
  <sodipodi:namedview
     id="namedview7"
     pagecolor="#ffffff"
     bordercolor="#666666"
     borderopacity="1.0"
     inkscape:pageshadow="2"
     inkscape:pageopacity="0.0"
     inkscape:pagecheckerboard="0"
     inkscape:document-units="mm"
     showgrid="false"
     units="px"
     inkscape:zoom="2.5620932"
     inkscape:cx="103.2359"
     inkscape:cy="46.641552"
     inkscape:window-width="1312"
     inkscape:window-height="969"
     inkscape:window-x="0"
     inkscape:window-y="25"
     inkscape:window-maximized="0"
     inkscape:current-layer="layer1" />
  <defs
     id="defs2" />
  <g
     inkscape:label="Layer 1"
     inkscape:groupmode="layer"
     id="layer1">
    <g
       id="g889"
       transform="matrix(0.1128345,0,0,0.1128345,1.7076375,0.77814861)"
       style="fill:#3465a4">
      <path
         d="M 62.37,54.759 42.63,35.015 c -2.614,-2.614 -1.352,-4.534 -1.352,-4.534 l -0.012,-0.013 c 0.873,-1.798 0.579,-4.015 -0.911,-5.508 l -7.684,-7.684 c -1.886,-1.887 -4.944,-1.887 -6.831,0 l -1.174,1.172 -0.125,0.126 c 0,0 -0.539,1.072 1.918,1.215 l 0.001,0.003 c 0,0 1.13,0.096 2.234,1.2 l 2.72,2.72 c 0.994,0.993 1.021,2.029 0.975,2.495 -0.227,1.28 -0.817,2.507 -1.808,3.495 -0.981,0.984 -2.201,1.569 -3.471,1.797 -0.563,0.052 -1.634,-0.045 -2.82,-1.231 L 22.228,28.203 C 20.929,26.904 20.653,25.228 20.653,25.228 H 20.65 c -0.503,-2.279 -1.191,-1.569 -1.191,-1.569 l -1.3,1.3 c -1.886,1.885 -1.886,4.944 -10e-4,6.831 l 7.683,7.682 c 1.57,1.571 3.947,1.814 5.79,0.771 l 0.014,0.015 c 0,0 1.691,-1.069 3.967,1.209 l 20.486,20.489 c 0,0 2.49,2.445 4.839,0.097 l 1.938,-1.938 c 0.655,-0.732 2.042,-2.809 -0.505,-5.356 z"
         fill="#241f20"
         id="path885"
         style="fill:#3465a4" />
      <path
         d="m 40.965,52.071 c -1.226,-1.458 -3.194,-0.554 -3.194,-0.554 l -0.005,-0.013 c -0.168,0.057 -0.333,0.124 -0.504,0.177 -0.054,0.02 -0.088,0.042 -0.151,0.067 -2.688,0.99 -2.713,3.034 -2.713,3.034 v 2.397 c -0.038,2.04 -1.666,2.398 -2.508,2.452 h -0.975 c -2.092,0.042 -2.467,-1.237 -2.521,-1.921 v -2.76 c 0,-2.538 -2.833,-3.239 -2.833,-3.239 l 0.009,-0.012 c -1.534,-0.454 -2.985,-1.099 -4.348,-1.873 -0.057,-0.025 -0.102,-0.04 -0.164,-0.071 -2.293,-1.149 -4.002,0.472 -4.002,0.472 l -1.949,1.949 c -1.361,1.356 -2.368,0.724 -2.737,0.389 l -0.157,-0.159 -0.006,-0.008 h -0.001 l -1.601,-1.601 c -0.001,-0.003 -0.003,-0.003 -0.006,-0.006 -1.253,-1.251 0.377,-2.972 0.594,-3.189 l 1.901,-1.899 c 0.001,0 0.001,-0.005 0.001,-0.005 1.465,-1.465 0.314,-3.746 0.314,-3.746 0,0 0.016,-0.003 0.019,-0.003 -0.731,-1.328 -1.335,-2.735 -1.766,-4.223 -0.014,-0.039 -0.03,-0.064 -0.045,-0.105 C 10.652,34.953 8.218,34.998 8.171,34.998 L 6.324,35.006 C 4.162,35.009 3.773,33.604 3.715,32.865 L 3.71,31.376 c 0.013,-0.615 0.236,-2.355 2.423,-2.374 0.001,0 0.001,0 0.001,0 l 2.367,-0.01 c 0,0 2.231,0.104 3.023,-2.273 0.011,-0.03 0.026,-0.046 0.036,-0.076 0.475,-1.751 1.16,-3.413 2.05,-4.942 0,0 0,-0.001 0,-0.003 1.13,-2.273 -0.484,-3.978 -0.695,-4.185 l -1.61,-1.608 c 0,0 0,-10e-4 -0.003,-0.004 -1.553,-1.553 -0.489,-2.899 -0.12,-3.283 l 0.839,-0.839 c 0,0 1.77,-1.874 3.644,0 0.003,0 0.003,10e-4 0.005,0.003 l 1.83,1.83 c 0.345,0.327 1.753,1.472 3.773,0.491 0.008,-0.003 0.011,-0.003 0.018,-0.006 1.3,-0.736 2.698,-1.314 4.153,-1.758 0.039,-0.016 0.06,-0.035 0.104,-0.053 2.344,-0.921 2.781,-2.366 2.846,-3.113 V 6.441 c 0.013,-0.457 0.188,-2.256 2.289,-2.256 h 1.314 c 0,0 2.397,-0.08 2.397,2.589 v 2.062 c 0.013,0.588 0.218,2.547 2.478,3.344 0.004,10e-4 0.004,0.003 0.01,0.005 1.368,0.377 2.673,0.907 3.911,1.547 l 0.013,-0.011 c 0,0 2.82,1.75 4.949,-0.377 l 1.424,-1.424 c 0.066,-0.066 1.993,-1.932 3.434,-0.491 0.003,10e-4 0.006,0.003 0.006,0.006 l 1.18,1.177 c 0,0 1.431,1.742 -0.371,3.545 l -1.595,1.595 c 0,0 -1.663,1.704 -0.455,4.286 0.021,0.045 0.021,0.072 0.04,0.116 0.736,1.341 1.317,2.776 1.745,4.279 0.004,-0.003 0.02,-0.016 0.02,-0.016 0,0 0.516,2.59 2.826,2.584 l 2.242,-0.01 h 0.06 0.101 c 0.065,-0.001 2.738,-0.044 2.744,2.481 l 0.007,1.061 v 0.003 0.261 c -0.022,0.625 -0.32,2.187 -2.805,2.196 L 54.208,35 c -1.681,0.016 -2.517,1.393 -2.885,2.269 -0.14,0.383 -0.467,1.625 0.719,2.792 l 0.305,0.3 c 0.006,0.005 0.01,0.008 0.014,0.013 1.772,1.9 3.037,-0.761 3.037,-0.761 0.804,-1.336 1.979,-1.604 2.608,-1.647 h 3.279 c 0.997,0 1.805,-0.807 1.805,-1.805 v -8.325 c 0,-0.995 -0.808,-1.805 -1.805,-1.805 h -3.128 c -2.453,0 -3.072,-2.276 -3.072,-2.276 0,0 -0.016,0.004 -0.021,0.006 -0.365,-1.05 -0.78,-2.079 -1.277,-3.061 0,-0.003 0,-0.005 -0.003,-0.008 -0.827,-1.82 0.724,-3.371 0.809,-3.452 l 1.996,-2 c 0.704,-0.705 0.704,-1.847 0,-2.553 L 50.703,6.801 C 49.996,6.097 48.854,6.098 48.15,6.802 L 46.7,8.25 c -2.264,2.278 -4.387,1.178 -4.387,1.178 L 42.31,9.434 C 41.496,9.044 40.663,8.692 39.807,8.387 39.767,8.368 39.739,8.351 39.698,8.334 37.805,7.559 37.556,5.619 37.532,4.833 V 2.734 c 0,-0.997 -0.809,-1.805 -1.805,-1.805 h -8.665 c -0.995,0 -1.805,0.808 -1.805,1.805 v 2.609 c 0,2.613 -2.21,3.009 -2.21,3.009 L 23.06,8.365 C 22.104,8.706 21.167,9.087 20.265,9.535 20.249,9.541 20.24,9.538 20.224,9.544 18.422,10.342 17.426,9.56 17.173,9.315 L 17.111,9.253 17.102,9.242 H 17.101 L 14.66,6.796 C 13.954,6.092 12.811,6.092 12.107,6.793 l -5.892,5.884 c -0.704,0.706 -0.706,1.847 0,2.552 l 1.956,1.958 c 0,0 1.696,1.635 0.855,3.471 0,0.003 0,0.003 0,0.003 -0.487,0.957 -0.896,1.958 -1.258,2.98 -0.025,0.053 -0.049,0.094 -0.074,0.156 -0.75,1.831 -2.143,2.18 -2.888,2.234 H 1.96 c -0.997,0 -1.805,0.81 -1.805,1.805 v 8.325 c 0,0.998 0.808,1.805 1.805,1.805 H 5.2 c 1.833,0 2.315,1.691 2.315,1.691 0,0 0.013,-0.031 0.021,-0.046 0.375,1.167 0.803,2.31 1.336,3.395 -10e-4,0 -0.011,0.005 -0.011,0.005 0,0 1.145,1.941 -0.138,3.224 v 0.003 l -2.519,2.518 c -0.704,0.704 -0.704,1.85 0,2.551 l 5.887,5.886 c 0.706,0.706 1.847,0.706 2.551,0 l 2.266,-2.262 0.005,-0.007 0.101,-0.099 c 0.311,-0.296 1.402,-1.101 3.507,-0.232 0.022,0.011 0.035,0.014 0.055,0.021 0.803,0.38 1.629,0.726 2.475,1.023 l -0.01,0.009 c 0,0 2.217,0.66 2.217,2.887 v 2.732 c 0,0.998 0.81,1.805 1.805,1.805 h 8.665 c 0.996,0 1.805,-0.807 1.805,-1.805 v -2.992 c 0.04,-0.66 0.333,-1.906 1.886,-2.517 0.06,-0.025 0.098,-0.046 0.145,-0.067 0.6,-0.209 1.176,-0.464 1.756,-0.712 1.401,-0.778 0.102,-2.364 0.102,-2.364 z"
         fill="#241f20"
         id="path887"
         style="fill:#3465a4" />
    </g>
    <text
       xml:space="preserve"
       style="font-style:normal;font-variant:normal;font-weight:bold;font-stretch:normal;font-size:5.64444px;line-height:1.25;font-family:sans-serif;-inkscape-font-specification:'sans-serif, Bold';font-variant-ligatures:normal;font-variant-caps:normal;font-variant-numeric:normal;font-variant-east-asian:normal;fill:#ffffff;stroke-width:0.264583"
       x="12.211322"
       y="5.7702074"
       id="text1487"><tspan
         sodipodi:role="line"
         id="tspan1485"
         style="font-style:normal;font-variant:normal;font-weight:bold;font-stretch:normal;font-size:5.64444px;font-family:sans-serif;-inkscape-font-specification:'sans-serif, Bold';font-variant-ligatures:normal;font-variant-caps:normal;font-variant-numeric:normal;font-variant-east-asian:normal;fill:#ffffff;stroke-width:0.264583"
         x="12.211322"
         y="5.7702074">tooling</tspan></text>
  </g>
</svg>
